<svg width="112" height="112" viewBox="0 0 112 112" fill="none" xmlns="http://www.w3.org/2000/svg"><path d="M56.0001 111.65C86.7347 111.65 111.65 86.7346 111.65 56C111.65 25.2653 86.7347 0.349976 56.0001 0.349976C25.2655 0.349976 0.350098 25.2653 0.350098 56C0.350098 86.7346 25.2655 111.65 56.0001 111.65Z" fill="#B0DBB9"/><path d="M22.7744 51.7825L54.5124 40.6281L90.7864 47.9815L50.2249 54.845L22.7744 51.7825Z" fill="#1B3D25"/><path d="M70.8749 88.48L72.3554 85.7745L73.8359 88.48L76.5484 89.957L73.8359 91.4375L72.3554 94.143L70.8749 91.4375L68.1624 89.957L70.8749 88.48Z" fill="#1B3D25"/><path d="M80.9586 39.655C77.7246 42.105 72.0266 40.047 68.2326 35.049C64.4386 30.051 63.9836 24.0065 67.2176 21.553L68.9676 20.2335L82.9991 38.045L80.9586 39.655Z" fill="#1B3D25"/><path d="M82.9614 38.0757C86.1624 35.646 85.6764 29.6173 81.8758 24.6103C78.0752 19.6032 72.3993 17.5138 69.1983 19.9435C65.9973 22.3732 66.4833 28.4019 70.2839 33.409C74.0845 38.4161 79.7604 40.5054 82.9614 38.0757Z" fill="#69C186"/><path d="M71.4 34.0341L69.041 36.0501C69.1775 36.2041 69.314 36.3511 69.4505 36.4981L71.771 34.5276L71.4 34.0341Z" fill="#69C186"/><path d="M70.4093 32.6691L67.7773 34.4191C67.8928 34.5836 68.0083 34.7481 68.1273 34.9126L70.7558 33.1626L70.4093 32.6691Z" fill="#69C186"/><path d="M69.0899 31.556L66.8184 32.8615C66.9199 33.0505 67.0249 33.236 67.1369 33.418L69.4084 32.1125L69.0899 31.556Z" fill="#69C186"/><path d="M27.2054 54.845C24.4054 45.1535 28.4934 32.991 28.4934 32.991C28.4934 32.991 32.8404 36.6205 51.2224 36.3125C67.4239 36.0395 74.8649 48.2125 74.7074 53.1125C74.7074 53.1265 29.3334 54.4635 27.2054 54.845Z" fill="#69C186"/><path d="M53.424 42.539C52.9187 42.236 52.3403 42.0762 51.751 42.077C50.554 42.077 49.434 42.8015 48.5415 43.596C45.7065 46.123 44.289 49.6825 43.827 53.144C43.5295 55.335 43.61 57.645 44.821 59.444C46.032 61.243 48.636 62.328 50.9215 61.4425C54.0715 60.2245 54.9185 56.5075 55.552 53.879C56.371 50.4665 56.952 46.6305 54.761 43.7535C54.3968 43.2672 53.943 42.855 53.424 42.539Z" fill="#2F874D"/><path d="M55.0724 46.3225L54.4914 46.4205C53.9696 46.9344 53.4776 47.4778 53.0179 48.048C44.4849 61.411 35.0314 73.6225 22.7744 82.425V84.413L56.7804 77.623L90.7864 78.862V47.9815L55.0724 46.3225Z" fill="white"/><path d="M53.0179 48.048C53.4776 47.4779 53.9696 46.9345 54.4914 46.4205L22.7744 51.8V82.425C35.0314 73.6225 44.4849 61.411 53.0179 48.048Z" fill="#E8E8E8"/><path d="M62.4785 58.3976V53.4626C62.479 53.257 62.52 53.0535 62.5993 52.8638C62.6787 52.6742 62.7946 52.502 62.9407 52.3573C63.0867 52.2126 63.2599 52.0981 63.4502 52.0205C63.6406 51.9429 63.8444 51.9037 64.05 51.9051H84.091C84.5044 51.9051 84.9009 52.069 85.1936 52.361C85.4862 52.653 85.6511 53.0492 85.652 53.4626V58.3976H62.4785Z" fill="#B0DBB9"/><path d="M62.4785 62.2615V57.33C62.4785 56.916 62.643 56.519 62.9357 56.2262C63.2285 55.9335 63.6255 55.769 64.0395 55.769H84.0805C84.4945 55.769 84.8916 55.9335 85.1843 56.2262C85.4771 56.519 85.6415 56.916 85.6415 57.33V62.2615H62.4785Z" fill="#1B3D25"/><path d="M38.528 87.388C41.762 89.838 47.4565 87.78 51.2505 82.782C55.0445 77.784 55.4995 71.75 52.2655 69.3L50.5155 67.9805L36.4805 85.7885L38.528 87.388Z" fill="#1B3D25"/><path d="M49.2 81.1449C53.0006 76.1378 53.4866 70.1091 50.2856 67.6794C47.0846 65.2497 41.4087 67.3391 37.6081 72.3461C33.8075 77.3532 33.3215 83.3819 36.5225 85.8116C39.7235 88.2413 45.3994 86.1519 49.2 81.1449Z" fill="#69C186"/><path d="M48.0863 81.7671L50.4418 83.7726L50.0498 84.2206L47.7153 82.2501L48.0863 81.7671Z" fill="#69C186"/><path d="M49.0768 80.4055L51.7053 82.1555C51.5933 82.32 51.4743 82.4845 51.3553 82.649L48.7268 80.899L49.0768 80.4055Z" fill="#69C186"/><path d="M50.3998 79.2891L52.6713 80.5981C52.5698 80.7836 52.4648 80.9691 52.3528 81.1546L50.0813 79.8456L50.3998 79.2891Z" fill="#69C186"/><path d="M45.2374 17.7625L47.7154 13.244L50.1899 17.7625L54.7189 20.2335L50.1899 22.708L47.7154 27.2265L45.2374 22.708L40.7119 20.2335L45.2374 17.7625Z" fill="white"/><path d="M34.5389 40.4363C34.8824 39.0577 34.1208 37.681 32.8378 37.3614C31.5549 37.0418 30.2364 37.9002 29.8929 39.2788C29.5494 40.6574 30.311 42.0341 31.594 42.3538C32.8769 42.6734 34.1954 41.8149 34.5389 40.4363Z" fill="#2F874D"/></svg>